<?xml version="1.0" standalone="no"?><!DOCTYPE svg PUBLIC "-//W3C//DTD SVG 1.1//EN" "http://www.w3.org/Graphics/SVG/1.1/DTD/svg11.dtd"><svg t="1543293352463" class="icon" style="" viewBox="0 0 1024 1024" version="1.1" xmlns="http://www.w3.org/2000/svg" p-id="3996" xmlns:xlink="http://www.w3.org/1999/xlink" width="144" height="144"><defs><style type="text/css"></style></defs><path d="M1024 981.333333c0 23.466667-19.2 42.666667-42.666667 42.666667-12.8 0-23.466667-4.266667-29.866667-12.8L697.6 757.333333C622.933333 817.066667 529.066667 853.333333 426.666667 853.333333 192 853.333333 0 661.333333 0 426.666667 0 192 192 0 426.666667 0s426.666667 192 426.666667 426.666667c0 102.4-36.266667 196.266667-96 270.933333l253.866667 253.866667C1019.733333 957.866667 1024 968.533333 1024 981.333333zM426.666667 85.333333C238.933333 85.333333 85.333333 238.933333 85.333333 426.666667s153.6 341.333333 341.333333 341.333333 341.333333-153.6 341.333333-341.333333S614.4 85.333333 426.666667 85.333333z" p-id="3997"></path></svg>